# xmcd CD database file
#
# Track frame offsets:
#	150
#	46652
#	72017
#	110825
#	138832
#	169660
#	204290
#
# Disc length: 3212 seconds
#
# Revision: 0
# Processed by: cddbd v1.5.2PL0 Copyright (c) Steve Scherf et al.
# Submitted via: CDex 1.70beta2
#
DISCID=570c8a07
DTITLE=auternational meltdown - Jazzin'universally
DYEAR=1995
DGENRE=Jazz
TTITLE0=amagoduka (migrant Workers)
TTITLE1=Phambili
TTITLE2=Hug Courtney pine
TTITLE3=bo molelekwa
TTITLE4=Dance to Africa
TTITLE5=Nikiwe
TTITLE6=Nobohle
EXTD=YEAR: 1995
EXTT0=
EXTT1=
EXTT2=
EXTT3=
EXTT4=
EXTT5=
EXTT6=
PLAYORDER=
